<?xml version="1.0" standalone="no"?>
<!DOCTYPE svg PUBLIC "-//W3C//DTD SVG 20010904//EN"
 "http://www.w3.org/TR/2001/REC-SVG-20010904/DTD/svg10.dtd">
<svg version="1.0" xmlns="http://www.w3.org/2000/svg"
 width="474.000000pt" height="474.000000pt" viewBox="0 0 474.000000 474.000000"
 preserveAspectRatio="xMidYMid meet">

<g transform="translate(0.000000,474.000000) scale(0.100000,-0.100000)"
fill="#01eeff" stroke="none">
<path d="M2396 3438 c-64 -6 -129 -22 -240 -59 -137 -47 -157 -51 -216 -46
-40 3 -96 18 -145 38 -65 27 -94 33 -155 33 -76 1 -92 -4 -197 -61 -34 -19
-46 -41 -15 -28 9 4 43 10 74 13 55 4 59 3 91 -29 25 -25 38 -52 51 -104 49
-198 80 -260 142 -290 52 -24 131 -16 218 24 38 17 74 31 80 31 29 0 171 -52
252 -93 315 -159 502 -430 521 -757 3 -61 1 -136 -6 -177 -16 -101 -57 -227
-86 -261 -13 -15 -27 -42 -31 -58 -26 -105 -119 -235 -226 -317 -78 -59 -170
-109 -225 -121 -49 -11 -55 -30 -7 -22 306 56 680 354 815 651 43 96 62 194
57 295 -10 169 -80 264 -308 418 -14 9 -45 36 -69 60 l-43 44 21 22 c18 17 23
18 30 7 5 -7 13 -11 19 -7 6 3 13 2 17 -4 7 -12 25 -4 25 11 0 5 -11 9 -24 9
-20 0 -23 4 -18 28 l5 27 -22 -22 c-12 -13 -29 -23 -37 -23 -19 0 -9 17 28 49
15 13 28 29 28 36 0 13 42 35 68 35 15 0 15 -2 2 -10 -11 -7 0 -10 38 -10 40
0 52 4 52 15 0 11 11 15 36 15 25 0 42 7 56 23 13 15 21 18 24 10 3 -7 14 -13
24 -13 23 0 35 41 15 56 -8 6 -15 14 -15 18 0 5 -10 16 -22 26 -17 13 -25 15
-31 7 -6 -8 -7 -5 -3 6 6 19 -47 77 -71 77 -7 0 -13 4 -13 9 0 12 -95 73 -157
102 -29 13 -53 27 -53 30 0 3 9 14 20 24 18 17 20 17 14 2 -3 -9 -11 -17 -17
-17 -6 0 -7 -3 -4 -6 12 -13 37 18 37 46 0 31 54 95 72 84 7 -4 8 -3 4 4 -4 8
0 12 10 12 25 0 -37 45 -104 76 -66 30 -180 61 -247 66 -27 3 -90 1 -139 -4z
m651 -588 c-10 -26 -16 -30 -49 -30 -27 0 -38 4 -38 15 0 8 9 15 20 15 11 0
20 4 20 9 0 5 10 12 23 14 12 2 25 5 29 6 3 0 1 -12 -5 -29z m-324 -151 c-1
-19 4 -37 10 -41 6 -4 8 -10 4 -14 -12 -13 -25 9 -32 55 -6 34 -4 42 6 39 9
-3 13 -18 12 -39z m-38 10 c11 -17 -1 -21 -15 -4 -8 9 -8 15 -2 15 6 0 14 -5
17 -11z"/>
<path d="M3456 3233 c-6 -14 -5 -15 5 -6 7 7 10 15 7 18 -3 3 -9 -2 -12 -12z"/>
<path d="M3476 3221 c-4 -6 -3 -17 2 -24 5 -7 13 -23 17 -36 7 -22 5 -23 -26
-19 -19 3 -42 8 -51 13 -11 4 -18 3 -18 -4 0 -6 9 -11 20 -11 14 0 20 -7 20
-21 0 -19 -5 -21 -39 -17 -35 3 -41 0 -46 -19 -5 -23 -25 -33 -25 -13 0 6 -11
10 -25 10 -20 0 -25 -5 -25 -25 0 -14 -6 -26 -12 -26 -31 -3 -54 4 -65 19 -7
9 -13 11 -13 5 0 -7 7 -19 16 -28 44 -44 131 -258 160 -395 26 -121 24 -363
-5 -524 -64 -357 -241 -648 -496 -814 -277 -180 -680 -255 -1032 -193 -62 11
-118 23 -125 28 -7 4 -24 9 -38 11 -46 5 -57 14 -30 23 21 7 19 8 -15 7 -22
-1 -60 4 -84 11 -98 28 -37 -10 149 -92 53 -23 215 -73 305 -94 117 -26 456
-26 570 1 284 67 511 198 715 413 189 198 321 450 392 746 20 81 22 120 22
317 0 219 -1 228 -31 340 -33 126 -89 270 -105 270 -5 0 -6 4 -3 10 8 13 -19
52 -29 43 -4 -4 -4 0 -1 9 3 8 -1 22 -10 31 -8 9 -19 26 -23 38 -6 15 -11 19
-16 10z m60 -127 c-4 -9 -9 -15 -11 -12 -3 3 -3 13 1 22 4 9 9 15 11 12 3 -3
3 -13 -1 -22z m1 -46 c-3 -8 -6 -5 -6 6 -1 11 2 17 5 13 3 -3 4 -12 1 -19z"/>
<path d="M3445 3190 c3 -5 8 -10 11 -10 2 0 4 5 4 10 0 6 -5 10 -11 10 -5 0
-7 -4 -4 -10z"/>
<path d="M3132 2813 c-1 -22 2 -33 7 -27 16 16 17 64 3 64 -5 0 -9 -17 -10
-37z"/>
<path d="M2805 2730 c-4 -6 13 -10 44 -10 28 0 51 5 51 10 0 6 -20 10 -44 10
-25 0 -48 -4 -51 -10z"/>
<path d="M2020 2614 c-139 -30 -247 -108 -270 -195 -10 -35 -9 -44 4 -57 32
-32 118 -17 286 48 76 30 209 38 281 17 46 -14 113 -50 84 -46 -25 3 -26 -2
-5 -21 l23 -20 -32 6 c-24 5 -35 2 -47 -12 -9 -11 -12 -13 -8 -5 5 11 3 13
-10 8 -10 -4 -21 -7 -24 -7 -4 0 0 -5 8 -10 25 -16 -7 -29 -75 -31 -33 -1 -46
-4 -30 -6 132 -17 231 -61 310 -138 104 -101 148 -250 126 -423 -7 -54 -17
-105 -22 -114 -6 -12 -6 -18 1 -18 5 0 10 7 10 16 0 8 4 12 10 9 5 -3 7 0 5 8
-3 7 1 28 8 46 l14 33 7 -26 c8 -33 21 -27 31 16 4 18 9 27 12 20 2 -6 9 -10
14 -7 5 4 6 -1 3 -9 -3 -9 -2 -16 3 -16 42 0 53 297 16 435 -101 374 -393 573
-733 499z m427 -250 c-3 -3 -12 -4 -19 -1 -8 3 -5 6 6 6 11 1 17 -2 13 -5z"/>
<path d="M2710 1673 c0 -21 3 -24 9 -14 5 8 7 20 4 28 -8 21 -13 15 -13 -14z"/>
<path d="M2660 1631 c0 -5 7 -12 16 -15 14 -5 15 -4 4 9 -14 17 -20 19 -20 6z"/>
<path d="M2591 1549 c-7 -17 -11 -32 -8 -35 2 -3 10 9 17 26 17 40 8 48 -9 9z"/>
<path d="M1738 1153 c7 -3 16 -2 19 1 4 3 -2 6 -13 5 -11 0 -14 -3 -6 -6z"/>
</g>
</svg>
